# xmcd
#
# Track frame offsets: 
#        150
#        16267
#        28519
#        32898
#        43610
#        55621
#        67360
#        88897
#        108094
#        121528
#        136327
#        166788
#        178371
#        190892
#        202070
#        212885
#        226734
#        242185
#
# Disc length: 3509 seconds
#
# Revision: 12
# Processed by: cddbd v1.5.2PL0 Copyright (c) Steve Scherf et al.
# Submitted via: ExactAudioCopyFreeDBPlugin 1.0
#
DISCID=e80db312,fa0db312
DTITLE=Various Blues Artists - Play Me the Blues - Disc 1
DYEAR=2000
DGENRE=Blues
TTITLE0=B.B. King - Long Nights
TTITLE1=Elmore James - The Sky Is Crying
TTITLE2=Mississippi John Hurt - C-h-i-c-k-e-n Blues
TTITLE3=Johnny Winter - Out of Sight
TTITLE4=John Lee Hooker - Whiskey and Wimmen
TTITLE5=Lightning Slim - Bad Luck Blues
TTITLE6=Lightnin' Hopkins - Don`t Wake Me
TTITLE7=John Mayall - John Lee Boogie
TTITLE8=Johnny Guitar Watson - Someone Cares for Me
TTITLE9=B.B. King - Mr. Pawnbroker
TTITLE10=Brownie McGhee and Sonny Terry - Everybody's Blues
TTITLE11=Lightnin' Hopkins - Blues for My Cookie
TTITLE12=Eric Clapton - Freight Loader
TTITLE13=B.B. King - Catfish Blues
TTITLE14=John Lee Hooker - No Shoes
TTITLE15=Elmore James - It Hurts Me Too
TTITLE16=Big Joe Williams - Nobody Knows You When Your Down and Out
TTITLE17=Mike Bloomfield - Women Lovin' Each Other
EXTD=3 cd BOX YEAR: 2000\nCAT #: KBOX3151\nWeton-Wesgram, Netherlands
EXTT0=
EXTT1=
EXTT2=
EXTT3=
EXTT4=
EXTT5=
EXTT6=
EXTT7=
EXTT8=
EXTT9=
EXTT10=
EXTT11=
EXTT12=
EXTT13=
EXTT14=
EXTT15=
EXTT16=
EXTT17=
PLAYORDER=
